<svg width="750" height="750" viewBox="0 0 750 750" fill="none" xmlns="http://www.w3.org/2000/svg">
<rect width="750" height="750" fill="white"/>
<path fill-rule="evenodd" clip-rule="evenodd" d="M584.982 388.844C586.293 550.269 515.682 668.192 380.688 674.887C282.297 679.767 341.155 525.393 217.842 422.896C138.91 357.288 86.8124 186.822 281.35 142.746C475.888 98.6707 583.672 227.42 584.982 388.844Z" fill="#E74C3C"/>
<path d="M186.621 623.243C174.375 600.667 176.375 573.349 178.903 547.791C184.719 489.001 193.672 425.693 234.852 383.333C245.743 372.13 259.037 362.631 274.294 359.257C286.116 356.644 297.506 352.083 307.865 345.814C310.362 331.192 296.603 319.678 286.991 308.379C276.227 295.727 269.511 279.681 268.055 263.134C267.194 253.338 265.137 239.992 255.313 239.575C247.237 239.231 241.158 229.487 244.399 222.083C247.641 214.679 258.925 212.537 264.655 218.238C256.481 187.596 273.748 152.242 302.939 139.849C298.179 133.042 308.568 124.884 316.816 125.859C325.065 126.834 333.049 131.817 341.148 129.976C338.373 125.088 342.82 118.595 348.299 117.343C353.779 116.091 359.402 118.47 364.317 121.197C395.866 138.7 416.716 173.999 416.815 210.079C417.631 203.493 427.514 201.238 432.347 205.785C437.181 210.331 436.951 218.469 433.519 224.149C430.086 229.828 424.236 233.557 418.446 236.798C418.592 260.724 409.493 284.59 393.455 302.346C381.785 315.266 365.25 328.971 369.08 345.954C375.288 344.581 381.568 351.743 379.396 357.719C406.014 355.501 430.854 371.567 449.712 390.483C477.357 418.212 497.226 453.614 506.497 491.656C508.116 498.301 517.57 500.113 523.419 496.567C529.268 493.022 532.274 486.317 534.94 480.018L587.593 355.589C584.2 338.826 586.945 321.501 589.696 304.62L598.823 248.597C599.652 243.512 603.209 236.802 607.905 238.922C609.527 239.654 610.433 241.238 611.005 242.983C611.271 243.792 611.464 244.635 611.625 245.445C614.472 259.81 615.382 274.558 614.322 289.164L632.549 257.984C635.499 252.939 641.611 247.357 646.173 249.445C647.888 249.781 649.051 251.492 649.296 253.237C649.946 255.609 649.395 258.462 648.653 260.923C645.328 271.944 639.908 282.33 632.768 291.361C642.394 294.644 653.544 299.629 655.229 309.659C654.229 327.843 640.826 348.719 630.945 359.556C633.212 358.188 634.695 362.259 634.244 364.869C623.405 427.577 596.994 487.534 558.04 537.857C546.545 552.708 533.195 564.201 512.253 566.273C483.713 569.097 465 527 449.502 528.126C449.502 528.126 435 603 424.5 613C414 623 345 644 324.207 637C303.415 630 282.617 648.719 255.313 646.843C227.015 644.898 186.621 623.243 186.621 623.243Z" fill="white"/>
<path d="M620.267 373.109C620.019 372.779 619.85 372.389 619.778 371.983C619.506 370.448 620.88 368.843 622.438 368.874C623.997 368.906 625.304 370.566 624.97 372.088C624.637 373.61 622.755 374.571 621.326 373.947C620.909 373.765 620.54 373.473 620.267 373.109Z" fill="#00160A"/>
<path d="M365.925 212.998C364.866 212.759 364.351 211.431 364.643 210.386C364.936 209.34 365.796 208.557 366.684 207.931C372.728 203.671 381.924 204.773 386.79 210.342C387.177 210.786 387.558 211.306 387.539 211.895C387.52 212.484 386.875 213.055 386.353 212.782C383.614 211.354 380.821 209.906 377.781 209.355C374.741 208.803 371.36 209.275 369.046 211.322C368.123 212.139 367.128 213.27 365.925 212.998Z" fill="#00160A"/>
<path d="M314.036 212.792C313.704 213.813 312.374 214.186 311.34 213.898C310.306 213.609 309.475 212.863 308.599 212.243C305.717 210.204 302.063 209.425 298.541 209.654C295.018 209.882 291.612 211.062 288.456 212.644C287.733 213.007 286.873 212.165 286.917 211.358C286.962 210.55 287.569 209.894 288.182 209.366C291.464 206.54 295.925 205.249 300.25 205.472C304.576 205.695 308.757 207.356 312.32 209.819C313.332 210.519 314.416 211.621 314.036 212.792Z" fill="black"/>
<path d="M621.753 384.511C621.387 385.001 620.861 385.346 620.329 385.647C619.776 385.961 619.167 386.247 618.533 386.198C617.691 386.133 616.988 385.471 616.641 384.701C615.788 382.804 617.238 380.212 619.317 380.139C621.395 380.065 622.999 382.845 621.753 384.511Z" fill="#00160A"/>
<path d="M436.781 463.575C437.79 464.038 437.071 465.669 436.041 466.085C435.012 466.502 433.715 466.515 433.044 467.4C432.566 468.03 432.586 468.893 432.633 469.682C432.73 471.295 432.832 473.006 432.064 474.427C431.296 475.848 429.293 476.724 428.012 475.74C426.836 474.837 426.941 473.084 426.9 471.602C426.859 470.119 426.114 468.264 424.633 468.331C417.381 468.663 410.129 468.994 402.877 469.326C401.957 469.368 400.911 469.361 400.285 468.687C399.427 467.764 400.009 466.134 401.092 465.49C402.176 464.845 403.521 464.898 404.779 464.971C410.108 465.279 415.437 465.587 420.765 465.895C421.593 465.942 422.461 465.983 423.21 465.627C423.959 465.272 424.522 464.379 424.219 463.607C423.405 461.54 424.486 458.923 426.522 458.034C427.229 457.725 427.55 456.909 427.725 456.158C427.9 455.406 428.026 454.589 428.561 454.033C429.096 453.477 430.22 453.442 430.501 454.16C431.149 455.818 432.735 456.888 433.85 458.276C434.965 459.663 435.481 461.969 434.07 463.053C434.148 464.07 435.854 463.15 436.781 463.575Z" fill="#00160A"/>
<path d="M324.207 634C301.503 613.258 282.284 588.71 267.597 561.691C261.402 550.294 255.866 537.489 258.185 524.727C262.522 500.855 253.558 476.867 246.497 453.654C239.435 430.441 234.433 404.228 245.791 382.788C227.873 399.311 220.687 424.348 216.846 448.417C207.941 504.218 212.953 562.185 231.304 615.629C209.756 576.185 208.909 528.993 210.953 484.094C212.543 449.156 216.45 411.951 238.396 384.721C204.609 412.276 194.329 458.79 186.873 501.747C179.873 542.082 173.642 584.416 186.621 623.243C174.375 600.667 176.375 573.349 178.903 547.791C184.719 489.001 193.672 425.693 234.852 383.333C245.743 372.13 259.037 362.631 274.294 359.257C286.116 356.644 297.506 352.083 307.865 345.814C310.362 331.192 296.603 319.678 286.991 308.379C276.227 295.727 269.511 279.681 268.055 263.134C267.194 253.338 265.137 239.992 255.313 239.575C247.237 239.231 241.158 229.487 244.399 222.083C247.641 214.679 258.925 212.537 264.655 218.238C256.481 187.596 273.748 152.242 302.939 139.849C298.179 133.042 308.568 124.884 316.816 125.859C325.065 126.834 333.049 131.817 341.148 129.976C338.373 125.088 342.82 118.595 348.299 117.343C353.779 116.091 359.402 118.47 364.317 121.197C395.866 138.7 416.716 173.999 416.815 210.079C417.631 203.493 427.514 201.238 432.347 205.785C437.181 210.331 436.951 218.469 433.519 224.149C430.086 229.828 424.236 233.557 418.446 236.798C418.592 260.724 409.493 284.59 393.455 302.346C381.785 315.266 365.25 328.971 369.08 345.954C375.288 344.581 381.568 351.743 379.396 357.719C406.014 355.501 430.854 371.567 449.712 390.483C477.357 418.212 497.226 453.614 506.497 491.656C508.116 498.301 517.57 500.113 523.419 496.567C529.268 493.022 532.274 486.317 534.94 480.018C552.491 438.542 570.042 397.065 587.593 355.589C581.718 319.49 586.945 321.501 589.696 304.62C597.218 285 595.781 267.272 598.823 248.597C599.652 243.512 603.209 236.802 607.905 238.922C610.28 239.994 611.118 242.889 611.625 245.445C614.472 259.81 615.382 274.558 614.322 289.164C620.398 278.771 626.473 268.378 632.549 257.984C635.874 252.296 643.219 245.927 647.831 250.632C650.364 253.217 649.698 257.458 648.653 260.923C645.328 271.944 639.908 282.33 632.768 291.361C642.394 294.644 653.544 299.629 655.229 309.659C655.928 313.82 654.749 318.054 653.353 322.035C648.497 335.874 640.826 348.719 630.945 359.556C633.212 358.188 634.695 362.259 634.244 364.869C623.405 427.577 596.994 487.534 558.04 537.857C546.545 552.708 530.951 568.025 512.253 566.273C500.549 565.177 490.659 557.497 481.502 550.126C471.642 542.19 461.782 534.253 451.922 526.317C474.874 531.444 487.656 560.076 511.004 562.903C529.987 565.201 545.922 549.302 557.395 534.004C594.832 484.089 620.4 425.333 631.412 363.918C616.441 366.43 600.858 365.204 586.465 360.381C572.183 404.66 554.198 447.743 532.757 489.034C529.051 496.171 522.459 504.466 514.847 501.871C511.44 500.709 509.138 497.582 507.219 494.537C488.033 464.108 483.575 423.531 455.592 400.925C466.87 470.869 449.089 541.994 428.962 609.922C444.37 556.991 453.756 502.309 456.881 447.269C457.598 434.633 457.956 421.719 454.38 409.578C450.804 397.437 442.64 386.013 430.79 381.568C423.072 431.766 377.865 469.107 366.425 518.59C357.175 558.602 342.959 597.464 324.207 634ZM370.677 496.585C387.876 463.888 410.424 433.956 424.424 399.767C427.607 391.993 430.232 382.754 425.905 375.555C424.343 372.956 422.014 370.922 419.725 368.934C416.104 365.79 412.134 362.492 407.355 362.104C401.013 361.588 395.513 366.331 391.433 371.214C381.539 383.053 375.15 397.363 369.075 411.546C354.542 445.471 341.032 479.998 332.535 515.913C324.039 551.828 320.651 589.317 326.494 625.758C333.893 592.339 358.772 564.022 362.182 529.964C362.744 524.355 362.706 518.661 363.927 513.157C365.222 507.316 367.891 501.88 370.677 496.585ZM404.725 187.997C402.396 183.507 399.49 179.212 395.516 176.082C386.664 169.112 374.2 169.093 363.125 171.165C356.046 172.489 349.101 174.531 342.431 177.249C340.69 177.958 338.841 178.73 336.991 178.394C335.141 178.057 333.477 176.063 334.235 174.342C334.381 174.011 334.607 173.704 334.646 173.344C334.754 172.337 333.474 171.833 332.471 171.689C317.229 169.491 300.999 172.061 288.186 180.603C275.372 189.145 266.502 204.039 266.976 219.431C267.083 222.885 269.68 225.711 272.287 227.98C276.274 231.449 280.667 234.451 285.349 236.905C287.45 238.006 290.333 238.879 291.939 237.133C295.125 233.67 300.418 233.401 305.123 233.502C321.475 233.852 337.916 235.738 354.126 233.56C364.002 232.232 373.62 229.414 383.458 227.828C386.471 227.342 389.582 226.976 392.552 227.68C395.522 228.383 398.358 230.359 399.304 233.261C403.134 228.933 406.579 224.263 409.583 219.326C410.485 217.844 411.36 216.304 411.694 214.602C411.99 213.092 411.844 211.532 411.643 210.006C410.636 202.342 408.283 194.858 404.725 187.997ZM380.199 295.517C385.97 292.986 389.213 286.849 391.396 280.937C396.599 266.848 398.272 251.47 396.219 236.592C396.013 235.096 395.737 233.529 394.783 232.359C393.272 230.505 390.571 230.217 388.181 230.315C382.561 230.544 377.093 232.092 371.622 233.398C360.102 236.148 348.301 237.857 336.458 237.897C324.754 237.936 313.07 236.349 301.375 236.803C299.047 236.894 296.586 237.112 294.696 238.475C291.701 240.636 291.174 244.822 291.055 248.514C290.599 262.548 292.255 276.649 295.951 290.196C296.173 291.01 296.423 291.859 297.015 292.46C297.653 293.108 298.579 293.36 299.452 293.615C313.582 297.753 325.804 309.604 340.492 308.581C351.387 307.823 360.547 300.009 371.212 297.654C374.226 296.989 377.373 296.756 380.199 295.517ZM259.41 527.355C258.533 540.089 265.738 551.815 272.667 562.534C279.682 573.385 286.696 584.237 293.71 595.088C283.365 560.659 278.485 524.826 275.166 489.03C271.7 451.653 269.98 413.31 280.2 377.191C281.822 371.46 283.765 365.754 286.903 360.691C277.495 360.446 267.486 361.167 259.811 366.614C254.822 370.155 251.281 375.41 248.658 380.937C240.552 398.017 240.532 417.95 244.115 436.513C247.699 455.076 254.651 472.79 260.098 490.894C261.681 496.155 263.151 501.556 262.959 507.046C262.718 513.925 259.882 520.489 259.41 527.355ZM305.106 299.154C300.257 297.292 294.375 295.772 292.447 290.949C291.541 288.684 291.762 286.151 291.501 283.726C291.24 281.301 290.223 278.641 287.955 277.745C282.489 275.585 277.246 272.862 272.336 269.633C274.772 283.958 281.259 297.572 290.85 308.488C295.653 313.955 301.222 318.77 305.478 324.673C309.735 330.576 312.629 338.003 311.062 345.11C310.562 347.374 313.816 348.36 316.134 348.305C331.535 347.941 346.934 347.511 362.331 347.015C364.94 346.93 366.479 343.883 366.418 341.273C366.357 338.664 365.306 336.141 365.341 333.531C365.391 329.695 367.743 326.308 370.137 323.31C377.227 314.429 385.509 306.57 392.88 297.919C400.251 289.269 406.818 279.578 409.621 268.565C404.743 276.792 394.452 281.034 390.636 289.805C388.47 294.783 383.232 297.712 378.045 299.313C372.857 300.913 367.359 301.563 362.408 303.79C359.869 304.932 357.528 306.466 355.042 307.718C346.309 312.116 335.785 312.814 326.547 309.607C319.027 306.997 312.536 302.008 305.106 299.154ZM613.504 320.912C618.854 320.594 625.318 322.676 628.862 318.655C629.673 317.735 630.209 316.468 629.915 315.276C629.514 313.654 627.808 312.762 626.254 312.149C616.33 308.229 605.224 307.367 594.814 309.708C591.189 310.523 589.07 313.87 588.276 317.5C587.482 321.13 587.675 325.06 588.276 328.726C589.804 338.04 591.332 347.353 592.86 356.666C592.929 357.086 593.003 357.52 593.239 357.874C593.593 358.405 594.236 358.651 594.841 358.857C602.361 361.419 610.362 362.562 618.298 362.207C621.454 362.066 624.867 361.567 627.082 359.314C637.923 348.291 645.849 334.425 649.845 319.49C647.669 321.436 644.875 322.952 641.964 322.727C639.053 322.502 636.224 320.025 636.414 317.111C630.833 321.412 624.26 325.963 617.36 324.535C612.085 323.443 606.262 325.78 603.205 330.216C601.342 329.726 602.059 326.843 603.415 325.474C606.072 322.793 609.737 321.136 613.504 320.912ZM293.071 403.812C289.417 404.381 285.781 405.062 282.174 405.876C279.638 406.449 276.619 407.614 276.29 410.193C275.636 415.336 275.281 420.517 275.227 425.7C302.81 419.194 332.097 420.069 359.242 428.209C362.126 421.452 365.011 414.694 367.895 407.937C343.607 401.359 317.934 399.944 293.071 403.812ZM394.975 363.278C390.611 360.968 385.528 360.04 380.629 360.659C379.662 360.781 378.576 361.049 378.11 361.905C376.25 365.323 372.184 366.801 368.422 367.797C349.494 372.81 329.508 372.697 310.107 370.053C306.501 369.561 302.845 368.965 299.568 367.38C296.291 365.795 293.394 363.069 292.422 359.561C289.839 359.522 288.288 362.344 287.37 364.758C284.595 372.059 282.196 379.504 280.187 387.052C311.642 379.927 344.884 380.848 375.896 389.705C378.855 386.092 381.052 381.856 382.301 377.355C382.884 375.254 384.496 373.622 386.048 372.09C389.024 369.153 392 366.215 394.975 363.278ZM343.6 469.707C346.64 462.985 349.221 456.056 351.321 448.983C327.104 444.972 302.303 444.501 277.951 447.593C276.918 447.724 275.772 447.925 275.148 448.758C274.599 449.491 274.627 450.491 274.68 451.405C274.939 455.94 275.199 460.476 275.458 465.011C275.528 466.229 276.109 467.876 277.305 467.63C299.159 463.124 322.071 463.842 343.6 469.707ZM645.68 261.564C646.374 259.843 647.04 258.033 646.889 256.184C646.738 254.335 645.533 252.44 643.71 252.097C642.573 251.883 641.401 252.295 640.416 252.903C638.003 254.392 636.491 256.947 635.073 259.403C628.655 270.523 622.238 281.642 615.82 292.761C614.988 294.202 612.583 293.756 611.671 292.364C610.758 290.972 610.88 289.171 611.009 287.512C612.088 273.604 611.278 259.552 608.61 245.861C608.444 245.011 608.258 244.132 607.747 243.433C606.265 241.407 602.806 242.111 601.314 244.129C599.822 246.148 599.735 248.844 599.715 251.355C599.567 270.478 599.747 290.28 592.022 307.774C599.869 304.728 608.702 304.289 616.812 306.54C617.971 306.862 619.172 307.241 620.354 307.017C621.536 306.794 622.659 305.717 622.453 304.532C621.679 300.091 624.867 296.054 627.669 292.523C635.118 283.14 641.205 272.677 645.68 261.564ZM376.613 353.127C376.079 350.935 374.114 348.922 371.867 349.123C348.939 351.176 325.881 351.76 302.879 350.87C301.517 350.817 300.083 350.774 298.875 351.405C298.023 351.85 297.356 352.604 296.904 353.453C295.068 356.899 296.932 361.392 300.061 363.727C303.19 366.061 307.221 366.743 311.094 367.232C328.004 369.367 345.237 369.142 362.023 366.193C365.648 365.556 369.366 364.744 372.366 362.613C375.366 360.482 377.485 356.702 376.613 353.127ZM335.739 493.523C335.872 493.065 335.999 492.545 335.758 492.133C335.5 491.694 334.936 491.564 334.434 491.479C316.208 488.387 297.553 489.906 279.129 491.433C278.608 491.476 278.015 491.559 277.722 491.992C277.494 492.33 277.527 492.773 277.568 493.179C278.102 498.409 278.636 503.64 279.17 508.871C279.272 509.875 279.697 511.177 280.706 511.126C296.726 510.308 312.824 511.017 328.71 513.242C329.719 513.384 330.327 512.18 330.611 511.201C332.32 505.308 334.03 499.416 335.739 493.523ZM325.292 540.585C325.371 539.833 325.416 538.975 324.895 538.427C324.497 538.007 323.879 537.899 323.305 537.819C310.834 536.082 298.162 537.315 285.631 538.55C285.005 538.612 284.28 538.735 283.978 539.287C283.771 539.666 283.836 540.13 283.908 540.556C284.748 545.567 285.589 550.578 286.43 555.59C286.551 556.311 286.932 557.236 287.655 557.129C299.608 555.347 312.328 554.823 323.26 559.974C323.938 553.511 324.615 547.048 325.292 540.585ZM275.156 267.694C279.671 270.795 284.628 273.253 289.83 274.968C287.565 264.522 287.122 253.684 288.525 243.088C288.703 241.748 287.194 240.883 285.948 240.358C278.665 237.288 272.054 232.631 266.71 226.807C267.262 237.862 268.457 248.884 270.287 259.8C270.561 261.437 270.868 263.119 271.754 264.523C272.588 265.843 273.869 266.81 275.156 267.694ZM395.518 278.918C400.368 274.976 404.617 270.328 408.376 265.335C410.405 262.642 412.316 259.804 413.44 256.625C414.57 253.428 414.863 250.002 414.997 246.614C415.349 237.748 414.672 228.841 412.985 220.129C409.09 225.42 405.196 230.711 401.301 236.002C400.704 236.814 400.092 237.656 399.862 238.638C399.677 239.424 399.752 240.246 399.818 241.051C400.858 253.793 399.388 266.734 395.518 278.918ZM320.277 602.489C321.13 602.661 321.52 601.47 321.541 600.6C321.665 595.401 321.788 590.201 321.912 585.002C321.923 584.534 321.93 584.045 321.728 583.623C321.354 582.843 320.415 582.545 319.578 582.328C314.845 581.097 310.044 579.858 305.154 579.917C301.092 579.966 297.07 580.913 293.01 580.813C292.549 580.802 291.949 580.878 291.853 581.328C291.819 581.484 291.863 581.645 291.907 581.799C293.699 588.019 296.058 594.075 298.945 599.868C299.324 600.628 299.776 601.443 300.566 601.751C301.124 601.968 301.747 601.887 302.341 601.813C308.304 601.067 314.387 601.296 320.277 602.489ZM417.696 212.071C416.767 213.507 415.945 215.076 415.793 216.779C415.699 217.824 415.862 218.873 416.025 219.909C416.651 223.902 417.278 227.896 417.904 231.889C417.941 232.121 417.983 232.367 418.138 232.543C418.501 232.958 419.175 232.738 419.666 232.488C421.649 231.481 423.655 230.459 425.329 228.995C426.671 227.821 427.765 226.392 428.796 224.936C430.949 221.894 432.926 218.5 433.066 214.775C433.206 211.05 430.92 207 427.254 206.328C423.371 205.615 419.84 208.757 417.696 212.071ZM248.988 219.979C247.5 221.282 246.961 223.353 246.714 225.316C246.487 227.113 246.448 228.985 247.072 230.686C247.932 233.032 249.976 234.791 252.237 235.854C254.499 236.918 256.99 237.374 259.449 237.819C260.663 238.04 261.876 238.26 263.09 238.48C263.391 238.534 263.747 238.573 263.959 238.353C264.136 238.171 264.136 237.886 264.124 237.633C263.924 233.138 263.723 228.643 263.522 224.148C263.437 222.238 262.072 220.556 260.389 219.649C258.706 218.742 256.747 218.498 254.837 218.45C252.773 218.397 250.54 218.618 248.988 219.979ZM639.118 296.898C638.225 295.922 636.907 295.475 635.64 295.096C634.298 294.694 632.848 294.326 631.517 294.765C630.006 295.262 629.006 296.675 628.208 298.052C627.002 300.134 626.001 302.335 625.226 304.613C624.951 305.42 624.702 306.268 624.816 307.112C624.931 307.957 625.507 308.796 626.344 308.953C629.763 309.594 632.749 312.17 633.885 315.458C635.473 312.13 637.061 308.803 638.649 305.475C639.306 304.099 639.971 302.697 640.197 301.189C640.422 299.68 640.148 298.022 639.118 296.898ZM651.018 303.866C649.392 302.337 646.686 302.444 644.806 303.648C642.926 304.851 641.755 306.909 640.998 309.008C640.136 311.4 639.717 313.951 639.768 316.493C639.78 317.1 639.824 317.727 640.104 318.266C640.779 319.565 642.561 319.856 643.981 319.497C647.084 318.714 649.151 315.831 650.685 313.023C651.475 311.576 652.21 310.057 652.416 308.421C652.621 306.785 652.219 304.995 651.018 303.866ZM323.789 628.413C323.026 624 322.263 619.588 321.499 615.176C321.411 614.662 321.292 614.098 320.873 613.787C320.599 613.583 320.244 613.529 319.905 613.485C315.972 612.974 311.976 612.948 308.037 613.409C312.687 618.994 317.984 624.04 323.789 628.413Z" fill="#00160A"/>
</svg>
